<svg
	xmlns="http://www.w3.org/2000/svg"
	width="133.596"
	height="85.25"
	viewBox="0 0 133.596 85.25"
>
	<g
		id="Group_4291"
		data-name="Group 4291"
		transform="translate(-1320.135 -922.813)"
	>
		<path
			id="Path_27595"
			data-name="Path 27595"
			d="M163.141,105.131a7.454,7.454,0,0,1,2.952.593,7.689,7.689,0,0,1,4.089,4.08,7.652,7.652,0,0,1,0,5.909,7.723,7.723,0,0,1-4.081,4.063,7.719,7.719,0,0,1-5.892.017,7.537,7.537,0,0,1-2.4-1.625v14.008a1.01,1.01,0,0,1-.344.762,1.165,1.165,0,0,1-.824.322,1.107,1.107,0,0,1-.808-.322,1.033,1.033,0,0,1-.326-.762V106.282a1.108,1.108,0,0,1,1.135-1.151,1.155,1.155,0,0,1,.824.326,1.11,1.11,0,0,1,.344.842l-.029,1.031a7.029,7.029,0,0,1,5.362-2.2m0,12.935a5.105,5.105,0,0,0,2.076-.421,5.634,5.634,0,0,0,1.688-1.131,5.28,5.28,0,0,0,1.148-1.671,5.317,5.317,0,0,0,0-4.152,5.451,5.451,0,0,0-2.836-2.836,5.317,5.317,0,0,0-4.152,0,5.451,5.451,0,0,0-2.836,2.836,5.323,5.323,0,0,0,0,4.152,5.28,5.28,0,0,0,1.148,1.671,5.628,5.628,0,0,0,1.688,1.131,5.106,5.106,0,0,0,2.076.421"
			transform="translate(1249.797 874.804)"
			fill="#eae5ea"></path>
		<g
			id="Group_3403"
			data-name="Group 3403"
			transform="translate(1320.135 922.813)"
		>
			<path
				id="Path_27587"
				data-name="Path 27587"
				d="M2.345,48.624a2.208,2.208,0,0,1-1.671-.712A2.394,2.394,0,0,1,0,46.2V2.421A2.365,2.365,0,0,1,.674.677,2.266,2.266,0,0,1,2.344,0H18.323a11,11,0,0,1,4.4.89A11.418,11.418,0,0,1,26.313,3.31a11.967,11.967,0,0,1,2.45,3.6,10.687,10.687,0,0,1,.924,4.414,11.517,11.517,0,0,1-1.052,4.663A13.308,13.308,0,0,1,25.968,20a14.494,14.494,0,0,1,5.62,5.446,15.187,15.187,0,0,1,2.015,7.8,14.827,14.827,0,0,1-1.208,5.98,15.661,15.661,0,0,1-8.17,8.187,14.563,14.563,0,0,1-5.9,1.211Zm22.5-37.875a6.629,6.629,0,0,0-2.1-4.2,6.161,6.161,0,0,0-4.378-1.709H4.841v13.1h14.1A6.332,6.332,0,0,0,23.1,15.876a6.214,6.214,0,0,0,1.745-4.414Zm3.915,22.5a10.228,10.228,0,0,0-.745-3.844,10.787,10.787,0,0,0-2.094-3.31,10.3,10.3,0,0,0-6.956-3.31H4.841v21H18.327a9.927,9.927,0,0,0,4.01-.818,10.742,10.742,0,0,0,5.608-5.66,10.285,10.285,0,0,0,.816-4.058"
				transform="translate(0 0)"
				fill="#ee8e1d"></path>
			<path
				id="Path_27588"
				data-name="Path 27588"
				d="M81.438,30.953a15.61,15.61,0,0,1,6.3,1.287,16.181,16.181,0,0,1,8.579,8.611A15.788,15.788,0,0,1,97.6,47.176a2.406,2.406,0,0,1-.676,1.715,2.3,2.3,0,0,1-1.744.714H70.4a11.516,11.516,0,0,0,1.424,3.532,11.236,11.236,0,0,0,5.731,4.7,11.108,11.108,0,0,0,3.879.67,13.031,13.031,0,0,0,2.883-.284,9.284,9.284,0,0,0,2.314-.854,12.6,12.6,0,0,0,2.1-1.424q1.031-.854,2.243-1.993a1.718,1.718,0,0,1,1.21-.712,3.235,3.235,0,0,1,1.353.143,2.034,2.034,0,0,1,1.317,1.281,2.622,2.622,0,0,1-.036,1.852,2.4,2.4,0,0,1-.641,1q-1.78,1.5-3.132,2.623a16.406,16.406,0,0,1-2.705,1.842,10.782,10.782,0,0,1-2.99,1.047,20.388,20.388,0,0,1-3.916.325,15.627,15.627,0,0,1-6.3-1.284,16.172,16.172,0,0,1-8.579-8.6,16.2,16.2,0,0,1,0-12.629,16.172,16.172,0,0,1,8.579-8.6,15.627,15.627,0,0,1,6.3-1.284m0,4.841a11.013,11.013,0,0,0-3.879.677A11.264,11.264,0,0,0,71.828,41.2a11.666,11.666,0,0,0-1.424,3.56H92.545a11.182,11.182,0,0,0-1.459-3.56,11.987,11.987,0,0,0-2.492-2.847,11.245,11.245,0,0,0-3.274-1.887,11.025,11.025,0,0,0-3.88-.677"
				transform="translate(-30.141 -14.292)"
				fill="#eae5ea"></path>
			<path
				id="Path_27589"
				data-name="Path 27589"
				d="M143.336,30.953a15.61,15.61,0,0,1,6.3,1.287,16.181,16.181,0,0,1,8.579,8.611,15.787,15.787,0,0,1,1.281,6.325,2.406,2.406,0,0,1-.676,1.715,2.3,2.3,0,0,1-1.744.714H132.3a11.515,11.515,0,0,0,1.424,3.532,11.236,11.236,0,0,0,5.731,4.7,11.108,11.108,0,0,0,3.879.67,13.031,13.031,0,0,0,2.883-.284,9.283,9.283,0,0,0,2.314-.854,12.6,12.6,0,0,0,2.1-1.424q1.031-.854,2.243-1.993a1.718,1.718,0,0,1,1.21-.712,3.235,3.235,0,0,1,1.353.143,2.034,2.034,0,0,1,1.317,1.281,2.622,2.622,0,0,1-.036,1.852,2.4,2.4,0,0,1-.641,1q-1.78,1.5-3.132,2.623a16.4,16.4,0,0,1-2.705,1.842,10.781,10.781,0,0,1-2.99,1.047,20.388,20.388,0,0,1-3.916.325,15.627,15.627,0,0,1-6.3-1.284,16.169,16.169,0,0,1-8.578-8.6,16.2,16.2,0,0,1,0-12.629,16.169,16.169,0,0,1,8.578-8.6,15.627,15.627,0,0,1,6.3-1.284m0,4.841a11.013,11.013,0,0,0-3.879.677,11.264,11.264,0,0,0-5.731,4.734,11.665,11.665,0,0,0-1.424,3.56h22.141a11.182,11.182,0,0,0-1.459-3.56,11.987,11.987,0,0,0-2.492-2.847,11.245,11.245,0,0,0-3.274-1.887,11.025,11.025,0,0,0-3.88-.677"
				transform="translate(-58.721 -14.292)"
				fill="#eae5ea"></path>
			<path
				id="Path_27590"
				data-name="Path 27590"
				d="M204.6,31.614a15.686,15.686,0,0,1,6.207,1.246,16.159,16.159,0,0,1,8.6,8.579,16.084,16.084,0,0,1,0,12.423,16.234,16.234,0,0,1-8.578,8.543,16.229,16.229,0,0,1-12.387.036,15.842,15.842,0,0,1-5.055-3.417V88.475a2.126,2.126,0,0,1-.722,1.6,2.448,2.448,0,0,1-1.733.676,2.325,2.325,0,0,1-1.7-.676,2.173,2.173,0,0,1-.686-1.6V34.035a2.331,2.331,0,0,1,2.385-2.421,2.43,2.43,0,0,1,1.733.686,2.334,2.334,0,0,1,.722,1.77l-.059,2.168A14.778,14.778,0,0,1,204.6,31.614m0,27.2a10.731,10.731,0,0,0,4.364-.887,11.833,11.833,0,0,0,3.549-2.377,11.09,11.09,0,0,0,2.413-3.513,11.168,11.168,0,0,0,0-8.729,11.464,11.464,0,0,0-5.961-5.961,11.173,11.173,0,0,0-8.729,0,11.464,11.464,0,0,0-5.961,5.961,11.181,11.181,0,0,0,0,8.729,11.081,11.081,0,0,0,2.413,3.513,11.833,11.833,0,0,0,3.549,2.377,10.732,10.732,0,0,0,4.365.887"
				transform="translate(-87.058 -14.597)"
				fill="#ef8f1c"></path>
			<path
				id="Path_27591"
				data-name="Path 27591"
				d="M101.3,105.575a7.422,7.422,0,0,1,3,.612,7.695,7.695,0,0,1,4.078,4.094,7.507,7.507,0,0,1,.609,3.007,1.146,1.146,0,0,1-.322.815,1.09,1.09,0,0,1-.829.339H96.055a5.465,5.465,0,0,0,.677,1.679,5.35,5.35,0,0,0,2.725,2.233,5.3,5.3,0,0,0,1.845.319,6.186,6.186,0,0,0,1.37-.136,4.388,4.388,0,0,0,1.1-.406,6.036,6.036,0,0,0,1-.677q.489-.406,1.066-.948a.817.817,0,0,1,.575-.339,1.538,1.538,0,0,1,.643.068.967.967,0,0,1,.626.609,1.243,1.243,0,0,1-.017.88,1.144,1.144,0,0,1-.305.474q-.845.715-1.489,1.247a7.833,7.833,0,0,1-1.286.876,5.127,5.127,0,0,1-1.422.5,9.686,9.686,0,0,1-1.862.154,7.425,7.425,0,0,1-3-.61,7.691,7.691,0,0,1-4.079-4.088,7.707,7.707,0,0,1,0-6,7.691,7.691,0,0,1,4.079-4.088,7.425,7.425,0,0,1,3-.611m0,2.3a5.246,5.246,0,0,0-1.845.321,5.365,5.365,0,0,0-2.725,2.251,5.541,5.541,0,0,0-.677,1.693h10.526a5.305,5.305,0,0,0-.694-1.693A5.7,5.7,0,0,0,104.7,109.1a5.367,5.367,0,0,0-1.558-.9,5.245,5.245,0,0,0-1.844-.321"
				transform="translate(-43.274 -48.986)"
				fill="#ef8f1c"></path>
			<path
				id="Path_27593"
				data-name="Path 27593"
				d="M132.2,105.575a7.423,7.423,0,0,1,3,.612,7.695,7.695,0,0,1,4.078,4.094,7.508,7.508,0,0,1,.609,3.007,1.146,1.146,0,0,1-.322.815,1.091,1.091,0,0,1-.829.339H126.954a5.48,5.48,0,0,0,.677,1.679,5.308,5.308,0,0,0,4.569,2.552,6.188,6.188,0,0,0,1.371-.136,4.4,4.4,0,0,0,1.1-.406,6.009,6.009,0,0,0,1-.677q.49-.406,1.066-.948a.817.817,0,0,1,.575-.339,1.538,1.538,0,0,1,.643.068.968.968,0,0,1,.626.609,1.246,1.246,0,0,1-.017.88,1.149,1.149,0,0,1-.305.474q-.846.715-1.489,1.247a7.813,7.813,0,0,1-1.286.876,5.115,5.115,0,0,1-1.422.5,9.678,9.678,0,0,1-1.862.154,7.422,7.422,0,0,1-3-.61,7.691,7.691,0,0,1-4.079-4.088,7.7,7.7,0,0,1,0-6,7.691,7.691,0,0,1,4.079-4.088,7.423,7.423,0,0,1,3-.611m0,2.3a5.243,5.243,0,0,0-1.845.321,5.36,5.36,0,0,0-2.725,2.251,5.556,5.556,0,0,0-.677,1.693h10.527a5.318,5.318,0,0,0-.694-1.693A5.694,5.694,0,0,0,135.6,109.1a5.364,5.364,0,0,0-1.557-.9,5.245,5.245,0,0,0-1.845-.321"
				transform="translate(-57.493 -48.747)"
				fill="#ef8f1c"></path>
			<path
				id="Path_27597"
				data-name="Path 27597"
				d="M70.443,109.526a7.454,7.454,0,0,0,2.952-.593,7.689,7.689,0,0,0,4.089-4.08,7.652,7.652,0,0,0,0-5.909,7.723,7.723,0,0,0-4.081-4.063,7.719,7.719,0,0,0-5.892-.017,7.537,7.537,0,0,0-2.4,1.625V82.481a1.01,1.01,0,0,0-.344-.762,1.165,1.165,0,0,0-.824-.322,1.107,1.107,0,0,0-.808.322,1.033,1.033,0,0,0-.326.762v25.894a1.108,1.108,0,0,0,1.135,1.151,1.155,1.155,0,0,0,.824-.326,1.11,1.11,0,0,0,.344-.842l-.029-1.031a7.029,7.029,0,0,0,5.362,2.2m0-12.935a5.105,5.105,0,0,1,2.076.421,5.634,5.634,0,0,1,1.688,1.131,5.28,5.28,0,0,1,1.148,1.671,5.316,5.316,0,0,1,0,4.152,5.451,5.451,0,0,1-2.836,2.836,5.317,5.317,0,0,1-4.152,0,5.451,5.451,0,0,1-2.836-2.836,5.323,5.323,0,0,1,0-4.152,5.28,5.28,0,0,1,1.148-1.671,5.628,5.628,0,0,1,1.688-1.131,5.106,5.106,0,0,1,2.076-.421"
				transform="translate(-29 -37.584)"
				fill="#eae5ea"></path>
		</g>
	</g>
</svg>
