<?xml version="1.0" encoding="utf-8"?>
<svg id="Layer_1" data-name="Layer 1" xmlns="http://www.w3.org/2000/svg" viewBox="0 0 442 442"><defs><style>.cls-1,.cls-2,.cls-3{fill:#231f20;}.cls-2{font-size:16.82px;font-family:Nazare-Medium, Nazare;font-weight:500;}.cls-3{font-size:96.91px;font-family:Apertura-Regular, Apertura;}.cls-4{fill:#a28036;}</style></defs><path class="cls-1" d="M130.9,199.07a7.93,7.93,0,0,0,8.58,7.89,9.4,9.4,0,0,0,5.63-1.62,5.56,5.56,0,0,0,2.57-4.84,5.25,5.25,0,0,0-2.69-4.81,24.47,24.47,0,0,0-5.8-2,2,2,0,0,0-.52-.16c-3.33-.89-5.43-1.73-6.32-2.5a5.73,5.73,0,0,1-2-4.57,6.31,6.31,0,0,1,2.57-5.42,9.82,9.82,0,0,1,6.12-1.81,9.65,9.65,0,0,1,6.52,2.11,8,8,0,0,1,2.74,6H147a6.61,6.61,0,0,0-2.38-5.23,8.68,8.68,0,0,0-5.67-1.81,8.24,8.24,0,0,0-5.19,1.54,5.46,5.46,0,0,0-2.13,4.62,4.85,4.85,0,0,0,1.77,3.73c.88.77,2.79,1.51,5.71,2.23a1,1,0,0,0,.22.06,1.5,1.5,0,0,1,.35.09A27.09,27.09,0,0,1,146,194.8a6,6,0,0,1,3.06,5.35,7.09,7.09,0,0,1-2.86,6,11.12,11.12,0,0,1-6.76,1.92,9.78,9.78,0,0,1-7-2.42,9.24,9.24,0,0,1-2.89-6.58Z"/><path class="cls-1" d="M170.42,179.84h1.33v27.65h-1.33Z"/><path class="cls-1" d="M194.65,179.84h1.93l10.54,19.46,10.14-19.46h1.89v27.65H218v-26l-10.47,19.42h-.8l-10.83-19.42v26h-1.2Z"/><path class="cls-1" d="M260.16,187.15a7.28,7.28,0,0,1-2.17,5.46,7.57,7.57,0,0,1-3.91,1.85,26.19,26.19,0,0,1-4.46.27h-6.4v12.76h-1.37V179.84h7.89Q260.16,179.84,260.16,187.15ZM243.22,181v12.57h5.51c3.35,0,5.6-.24,6.72-.73,2.2-.92,3.3-2.86,3.3-5.8,0-3.34-1.78-5.27-5.35-5.81a32,32,0,0,0-4.63-.23Z"/><path class="cls-1" d="M281.13,179.84h1.37v26.42h15.33v1.23h-16.7Z"/><path class="cls-1" d="M320.28,195.27l-9.94-15.43h1.53L321,194l9-14.12h1.53l-9.94,15.5v12.15h-1.33Z"/><text class="cls-2" transform="translate(341.53 183.81)">TM</text><text class="cls-3" transform="translate(38.95 278.36)">Hamper</text><path class="cls-4" d="M220.45,63.89c-5.81,0-7.86,4.5-6.27,8.78a93.75,93.75,0,0,1,5.17,20c0,.72.35.86,1.1.88s1.13-.16,1.1-.88a93.16,93.16,0,0,1,5.17-20C228.31,68.39,226.26,63.89,220.45,63.89Z"/><path class="cls-4" d="M201.08,77.07c-1.6.05-3.15.45-3.89,2a3.8,3.8,0,0,0,1.72,5.1,3.88,3.88,0,0,0,1.83.41c2.75,0,9.83,3.08,11.37,9.86.31.88,1.41,1.25,1.25-.87C213.21,88.8,210.14,76.75,201.08,77.07Z"/><path class="cls-4" d="M238.36,77.07c-8.41.42-11.3,11.87-11.44,16.45-.16,2.12.93,1.75,1.25.87,1.54-6.78,8.62-9.81,11.37-9.86A3.84,3.84,0,0,0,243.09,79c-.74-1.5-2.29-1.9-3.89-2A5.89,5.89,0,0,0,238.36,77.07Z"/><path class="cls-4" d="M193.71,107.78c-.42,1.46.26,4.09,2.21,2.7a1.18,1.18,0,1,0-1.8-1.33,2.57,2.57,0,0,1,0-.48,3.49,3.49,0,0,1,2.92-3.1c3.82-1,7.45,2,10.47,3.88a11.36,11.36,0,0,0,4.4,1.93,7.68,7.68,0,0,0,4-.38,8.6,8.6,0,0,0,5-6.37s0,0,0,0a9.6,9.6,0,0,1-1.3,3,7.78,7.78,0,0,1-8.48,3.21c-3.52-1-6.21-3.8-9.62-5C199,104.87,194.61,104.61,193.71,107.78Zm24.56-5.61s0,0,0,0c-1.73,1.23-4.27,4-6.62,2.71-1.35-.74-3-2.59-1.56-4a1.64,1.64,0,0,1,2.15-.31,2.21,2.21,0,0,1,.67.79.58.58,0,0,1-.67.87.72.72,0,0,0,.18-.47.7.7,0,0,0-.7-.71.71.71,0,0,0-.71.71.67.67,0,0,0,.21.48h0a1.09,1.09,0,0,0,2-.11c.27-.62-.45-1.33-.86-1.67-1.4-1.16-3.24.6-3.19,2.1a3.61,3.61,0,0,0,1.91,2.62,3.39,3.39,0,0,0,2.62.38C215.57,105,216.82,103.41,218.27,102.17Zm-48.08,8.77c9.88,5.33,18.36-6.33,28-6.51,6.34-.13,9.62,7,16.1,5.88a7.15,7.15,0,0,0,5.92-7.27c-.08-2.62-2.29,0-3,.73-4.22,4.68-9.47.88-14.37-.39a15.58,15.58,0,0,0-7.46.16,11.5,11.5,0,0,0-3.58,1.1c-3.86,1.47-8.78,4-13.47,4.7-1.57.1-3.21.1-2.08.17a10.75,10.75,0,0,1-3.75-.59c-5.05-1.79-8.82-8.16-7.09-13.65a6.86,6.86,0,0,1,5.13-4.88,6.71,6.71,0,0,1,5.32.81c1.55,1.17,3.1,3.39,2.92,5.42a4.75,4.75,0,0,1-3.06,4,3.75,3.75,0,0,1-3.56-.62c-.53-.5-.92-1.9-.39-2.49.19-.21.47.16.23.29-.5.24-.28.84-.15,1.25a1.67,1.67,0,0,0,1.2,1.14c1.31.35,3.12-.72,3.08-2.12a2.55,2.55,0,0,0-2.56-2.23c-3,0-3.88,4.14-1.54,5.64,1.68,1.08,4.53.4,6-.79,2.8-2.29,2.38-6,0-8.57A8.27,8.27,0,0,0,164,95.44C162.35,101.26,164.8,108,170.19,110.94Z"/><path class="cls-4" d="M240.55,105.75c-3.41,1.25-6.11,4.06-9.62,5a7.78,7.78,0,0,1-8.48-3.21,9.82,9.82,0,0,1-1.29-3s0,0,0,0a8.6,8.6,0,0,0,5,6.37,7.68,7.68,0,0,0,4,.38,11.36,11.36,0,0,0,4.4-1.93c3-1.92,6.65-4.84,10.48-3.88a3.49,3.49,0,0,1,2.91,3.1,2.57,2.57,0,0,1,0,.48,1.18,1.18,0,0,0-2.29.37,1.2,1.2,0,0,0,.49,1c1.95,1.39,2.63-1.24,2.22-2.7C247.39,104.61,243,104.87,240.55,105.75Zm-12.2-.23a3.4,3.4,0,0,0,2.62-.38,3.64,3.64,0,0,0,1.91-2.62c.05-1.5-1.79-3.26-3.19-2.1-.42.34-1.13,1-.86,1.67a1.09,1.09,0,0,0,2,.11s0,0,0,0a.69.69,0,0,0,.19-.48.7.7,0,1,0-1.4,0,.72.72,0,0,0,.18.47.59.59,0,0,1-.67-.87,2.21,2.21,0,0,1,.67-.79,1.63,1.63,0,0,1,2.14.31c1.5,1.44-.2,3.29-1.54,4-2.36,1.3-4.9-1.48-6.63-2.71,0,0,0,0,0,0C225.18,103.41,226.43,105,228.35,105.52ZM278,95.44a8.27,8.27,0,0,0-14.09-3.27c-2.34,2.52-2.76,6.28,0,8.57,1.45,1.19,4.29,1.87,6,.79,2.34-1.5,1.47-5.63-1.54-5.64a2.56,2.56,0,0,0-2.56,2.23c-.05,1.4,1.77,2.47,3.07,2.12a1.66,1.66,0,0,0,1.21-1.14c.13-.41.35-1-.15-1.25-.24-.13,0-.5.22-.29.54.59.14,2-.38,2.49a3.74,3.74,0,0,1-3.55.62,4.76,4.76,0,0,1-3.08-4c-.17-2,1.38-4.25,2.93-5.42a6.71,6.71,0,0,1,5.32-.81,6.86,6.86,0,0,1,5.13,4.88c1.73,5.49-2,11.86-7.09,13.65a10.75,10.75,0,0,1-3.75.59c1.13-.07-.52-.07-2.08-.17-4.69-.67-9.61-3.23-13.47-4.7a11.5,11.5,0,0,0-3.58-1.1,15.62,15.62,0,0,0-7.47-.16c-4.89,1.27-10.14,5.07-14.36.39-.69-.76-2.9-3.35-3-.73a7.14,7.14,0,0,0,5.91,7.27c6.48,1.12,9.76-6,16.1-5.88,9.68.18,18.16,11.84,28,6.51C277.2,108,279.65,101.26,278,95.44Z"/><path class="cls-4" d="M336.6,306.92a63.06,63.06,0,0,1-5.38,5.34c-1.92,1.65-3.9,3.23-6,4.7a83.29,83.29,0,0,1-13.12,7.72,86.14,86.14,0,0,1-29.42,7.87c-1.28.09-2.56.11-3.84.17s-2.56.14-3.84.09l-3.82-.14c-1.28-.06-2.56-.07-3.82-.23-5.08-.43-10.13-1.11-15.13-1.95-10-1.71-19.87-4-29.72-6.13s-19.69-4.29-29.61-5.83A196.43,196.43,0,0,0,163,315.94l-7.5.18-7.53.52-7.51.72c-2.48.33-5,.62-7.46,1a105,105,0,0,0-14.7,3.22c-1.2.38-2.4.75-3.56,1.23s-2.31,1-3.45,1.49a25.65,25.65,0,0,0-3.24,1.9,9,9,0,0,0-2.65,2.64,9.4,9.4,0,0,1,2.51-2.82,25.74,25.74,0,0,1,3.17-2.12,37.23,37.23,0,0,1,3.42-1.67c1.16-.54,2.35-1,3.54-1.4a105.48,105.48,0,0,1,14.7-3.92c2.49-.49,5-.85,7.5-1.27l7.54-1,7.57-.72,7.62-.36a185,185,0,0,1,30.39,2.12c10,1.48,20,3.55,29.83,5.71s19.68,4.49,29.56,6.27,19.85,3.06,29.79,2.53A91,91,0,0,0,297.31,328a88.08,88.08,0,0,0,27.49-11.71A74.07,74.07,0,0,0,336.6,306.92Z"/><path class="cls-4" d="M209.43,359a11.51,11.51,0,0,0,7.93-1.44,6.57,6.57,0,0,0-1.18-.06,41.06,41.06,0,0,1-5.43-.27s0,0,0,0c1.63,0,3.33-.22,5-.34-2.58-.52-5.26-.32-7.88-.5,0,0,0,0,0,0a51.42,51.42,0,0,1,6.65-.33,13.46,13.46,0,0,0-4.64-.61s0,0,0,0a15.46,15.46,0,0,1,7.4.91,6.75,6.75,0,0,0-2-1.25,12.66,12.66,0,0,0-6.52-.81,4.94,4.94,0,0,0-2.51,1.08l-.17.15a15.12,15.12,0,0,1-1.65,1.65C206.29,357,207.7,358.64,209.43,359Zm-4.42,4.5.08,0C204.92,363.45,204.9,363.44,205,363.49Zm-.86-.26.14,0Zm-77.06-5.61a22.21,22.21,0,0,0,8.44,6.68,32.59,32.59,0,0,0,13.21,2.42,55.2,55.2,0,0,0,14.94-2.13l.13.09h0s0,0,0,0l.23.14c.83.61,1.65,1.21,2.5,1.8s1.29.93,1.13.78q1.84,1.24,3.77,2.39a71.92,71.92,0,0,0,12.15,5.86,34,34,0,0,0,13.25,2.41,17.66,17.66,0,0,0,6.2-1.15,11.13,11.13,0,0,0,3.85-2.92,7.94,7.94,0,0,0,2-4.22,5.92,5.92,0,0,0-4.72-6.37c-2.5-.58-5.34.37-5.43,3.37a5.19,5.19,0,0,0,2.55,4.48,2.68,2.68,0,0,0,1,.38,5,5,0,0,1-.94,1.31c-3.41,3.55-8.29,3.24-12.73,2.32a46,46,0,0,1-12.15-4.38,111.24,111.24,0,0,1-11.25-6.75c.08,0,9-3.23,13.17-5.1,4.75-2.12,9.43-4.55,14.38-6.17,8.2-2.7,19.61-3.23,25.9,3.84,0,0,.12,0,.08-.08a16,16,0,0,0-9.12-5.13,30.49,30.49,0,0,0-11.62-.13,53.59,53.59,0,0,0-12.6,4.36c-4.25,1.95-8.49,3.91-12.82,5.65-2.45,1-5,1.88-7.53,2.65-.49-.34-1-.69-1.44-1,7-2.33,13.74-5.49,20.58-8.35,2.76-1.15,5.51-2.32,8.36-3.24,7.47-2.39,17.71-3.73,24.3,1.62,1.43,1.17,2.31,2.82,3.63,4.09a.48.48,0,0,0,.12-.22l.12.17a.11.11,0,0,0,.18,0c.38-1.38-.28-2.61-.94-3.95a10.84,10.84,0,0,0-2.65-3.3,15.38,15.38,0,0,0-2.18-1.59c-2.39-1.68-14.05-2.81-9.91-2.38l.68.08a42.46,42.46,0,0,0-19.57,3.79c-8.12,3.54-15.76,8.16-24,11.37l-.82.31c-6.25-5-11.84-10.78-19.07-14.42-3.25-1.63-6.71-2.92-10.4-2.64-2.71.21-5.71,1.28-6.8,4C123.94,351.48,125.13,355,127.09,357.62Zm37.2,6.8.73-.22.29.2c7.59,5.2,15.76,9.8,24.91,11.39a18.68,18.68,0,0,0,6,.28c2.66-.39,6.53-2.13,7.51-4.88a2.88,2.88,0,0,0,.8-1.4c.19-.76-.52-1.85.16-2.43s1.89.37,2.29,1a2.79,2.79,0,0,1,.25,2.19,8.52,8.52,0,0,1-2.72,4c-2.9,2.59-7.2,3-10.92,2.66A42.68,42.68,0,0,1,180,373.51a80,80,0,0,1-12.4-6.75C166.51,366,165.39,365.22,164.29,364.42Zm-1.55-1.14.7-.23c.47.36.95.71,1.42,1l-.73.22ZM124.83,351.1a6.31,6.31,0,0,1,1.92-4.73,8.35,8.35,0,0,1,4.65-1.92c4-.46,7.73.88,11.21,2.7a64.09,64.09,0,0,1,11.89,8.41c2.28,2,4.51,4,6.84,5.85l-.73.26q-2.58-2-5.11-4.05a119.36,119.36,0,0,0-9.95-7.55c-3.34-2.14-7.1-4.1-11.13-4.44-2.88-.24-7,.43-8.42,3.39-1.15,2.43-.08,5.2,1.29,7.31a17.61,17.61,0,0,0,6.93,6.19,30.72,30.72,0,0,0,12.51,3.32,41.84,41.84,0,0,0,12.64-1.56c.94-.26,1.88-.53,2.81-.82l1.34,1c-7.27,2-14.84,2.84-22.31,1.39a23.23,23.23,0,0,1-10.87-5C127.52,358.43,124.76,355,124.83,351.1Zm1.62,1.83a6.8,6.8,0,0,1-.22-.89c.48,1.64,1.86,3,3,4.28a18.09,18.09,0,0,0,6.53,4.5,12.6,12.6,0,0,0,5.72,1,4.33,4.33,0,0,0,2.14-.76,1.45,1.45,0,0,0,2-.21l.1-.1a2.47,2.47,0,0,1-.67,1.2c-.93,1-2.6.95-3.85.87a17.46,17.46,0,0,1-3.74-.59A16.85,16.85,0,0,1,126.45,352.93Zm2,3.69,0,0h0Zm-2.24-6.45a4,4,0,0,1,.58-1.37c2.19-3.24,7.28-3.2,10.62-2.22a36.06,36.06,0,0,1,11.17,6.16c3.92,2.94,7.66,6.08,11.5,9.11-7.47,2.53-15.6,3.4-23.14.59l-.18-.07a16.31,16.31,0,0,0,5.75.93,5.65,5.65,0,0,0,4.15-1.61,2.85,2.85,0,0,0-.3-4.29,2.3,2.3,0,0,0-3.44,1.4,2.12,2.12,0,0,0,.38,1.95,2.3,2.3,0,0,1-.64.35,7.23,7.23,0,0,1-2.35.34,13.36,13.36,0,0,1-5-1,17.42,17.42,0,0,1-6-4.23,22.56,22.56,0,0,1-2.44-2.9A4.66,4.66,0,0,1,126.24,350.17Z"/><path class="cls-4" d="M237.54,357.11a15.12,15.12,0,0,1-1.65-1.65l-.16-.15a5,5,0,0,0-2.52-1.08,12.66,12.66,0,0,0-6.52.81,6.93,6.93,0,0,0-2,1.25,15.51,15.51,0,0,1,7.41-.91s0,0,0,0a13.46,13.46,0,0,0-4.64.61,51.42,51.42,0,0,1,6.65.33s0,0,0,0c-2.62.18-5.3,0-7.88.5,1.69.12,3.38.37,5,.34,0,0,0,0,0,0a41,41,0,0,1-5.43.27,6.57,6.57,0,0,0-1.18.06,11.51,11.51,0,0,0,7.93,1.44C234.3,358.64,235.71,357,237.54,357.11Zm-.63,6.4.08,0C237.11,363.44,237.08,363.45,236.91,363.51Zm.81-.25.13,0Zm79.08-14.95c-1.09-2.73-4.09-3.8-6.79-4-3.7-.28-7.16,1-10.41,2.64-7.22,3.64-12.82,9.44-19.07,14.42l-.82-.31c-8.27-3.21-15.91-7.83-24-11.37a42.46,42.46,0,0,0-19.57-3.79l.68-.08c4.14-.43-7.52.7-9.91,2.38a15.38,15.38,0,0,0-2.18,1.59,10.84,10.84,0,0,0-2.65,3.3c-.67,1.34-1.32,2.57-.94,3.95a.11.11,0,0,0,.18,0l.12-.17a.48.48,0,0,0,.12.22c1.32-1.27,2.2-2.92,3.64-4.09,6.57-5.35,16.82-4,24.29-1.62,2.85.92,5.6,2.09,8.36,3.24,6.84,2.86,13.54,6,20.58,8.35-.48.35-1,.7-1.45,1-2.55-.77-5.06-1.67-7.52-2.65-4.33-1.74-8.58-3.7-12.81-5.65A54,54,0,0,0,244,351.38a30.49,30.49,0,0,0-11.62.13,16,16,0,0,0-9.12,5.13c0,.06,0,.13.08.08,6.29-7.07,17.7-6.54,25.9-3.84,4.95,1.62,9.63,4.05,14.38,6.17,4.21,1.87,13.09,5.07,13.17,5.1a112.36,112.36,0,0,1-11.25,6.75,46.06,46.06,0,0,1-12.14,4.38c-4.45.92-9.33,1.23-12.74-2.32a5.24,5.24,0,0,1-.94-1.31,2.68,2.68,0,0,0,1-.38,5.17,5.17,0,0,0,2.55-4.48c-.09-3-2.93-4-5.43-3.37a5.92,5.92,0,0,0-4.72,6.37,8,8,0,0,0,2,4.22,11.13,11.13,0,0,0,3.85,2.92,17.66,17.66,0,0,0,6.2,1.15,34,34,0,0,0,13.25-2.41,71.92,71.92,0,0,0,12.15-5.86c1.29-.76,2.54-1.56,3.77-2.39-.16.15.29-.06,1.14-.78s1.67-1.19,2.49-1.8l.23-.14s0,0,0,0h0l.13-.09a55.2,55.2,0,0,0,14.94,2.13,32.59,32.59,0,0,0,13.21-2.42,22.21,22.21,0,0,0,8.44-6.68C316.87,355,318.06,351.48,316.8,348.31Zm-42.44,18.45a80,80,0,0,1-12.4,6.75,42.68,42.68,0,0,1-13.56,3.68c-3.72.29-8-.07-10.92-2.66a8.35,8.35,0,0,1-2.71-4,2.75,2.75,0,0,1,.24-2.19c.39-.62,1.56-1.6,2.29-1s0,1.67.17,2.43a2.87,2.87,0,0,0,.79,1.4c1,2.75,4.85,4.49,7.51,4.88a18.62,18.62,0,0,0,6-.28c9.16-1.59,17.33-6.19,24.92-11.39l.29-.2.74.22Q276.06,365.62,274.36,366.76Zm3.51-2.45-.74-.22c.49-.33,1-.68,1.43-1l.7.23C278.81,363.63,278.34,364,277.87,364.31Zm33.79-3.48a23.28,23.28,0,0,1-10.87,5c-7.47,1.45-15,.61-22.31-1.39l1.34-1c.93.29,1.86.56,2.81.82a41.85,41.85,0,0,0,12.63,1.56,30.59,30.59,0,0,0,12.51-3.32,17.57,17.57,0,0,0,6.94-6.19c1.37-2.11,2.44-4.88,1.29-7.31-1.39-3-5.54-3.63-8.42-3.39-4,.34-7.78,2.3-11.13,4.44a117.73,117.73,0,0,0-9.95,7.55q-2.53,2.06-5.11,4.05l-.72-.26c2.32-1.89,4.55-3.89,6.83-5.85a64.42,64.42,0,0,1,11.89-8.41c3.48-1.82,7.23-3.16,11.21-2.7a8.35,8.35,0,0,1,4.65,1.92,6.32,6.32,0,0,1,1.93,4.73C317.24,355,314.48,358.43,311.66,360.83Zm-7.14,1.4a17.64,17.64,0,0,1-3.76.59c-1.24.08-2.91.09-3.83-.87a2.32,2.32,0,0,1-.67-1.2.28.28,0,0,0,.09.1,1.46,1.46,0,0,0,2,.21,4.29,4.29,0,0,0,2.14.76,12.6,12.6,0,0,0,5.71-1,18,18,0,0,0,6.53-4.5,11.72,11.72,0,0,0,3-4.28,6.8,6.8,0,0,1-.22.89A16.85,16.85,0,0,1,304.52,362.23Zm9-5.66h0l0,0Zm1.49-3.27a21.78,21.78,0,0,1-2.44,2.9,17.48,17.48,0,0,1-6,4.23,13.44,13.44,0,0,1-5,1,7.25,7.25,0,0,1-2.36-.34,2.3,2.3,0,0,1-.64-.35,2.12,2.12,0,0,0,.38-1.95,2.29,2.29,0,0,0-3.44-1.4,2.85,2.85,0,0,0-.3,4.29,5.65,5.65,0,0,0,4.15,1.61,16.22,16.22,0,0,0,5.74-.93l-.17.07c-7.54,2.81-15.67,1.94-23.13-.59,3.83-3,7.57-6.17,11.49-9.11a36.06,36.06,0,0,1,11.17-6.16c3.34-1,8.43-1,10.62,2.22a4,4,0,0,1,.58,1.37A4.66,4.66,0,0,1,315.05,353.3Z"/></svg>